<?xml version="1.0" encoding="UTF-8"?>
<svg id="_Слой_1" data-name="Слой 1" xmlns="http://www.w3.org/2000/svg" viewBox="0 0 784.89 765.28">
  <path d="M415.07,588.15l-.03-.08-36.7-83.36-105.16-31.91,.07-.15,32.16-66.8L21.38,274.54C2.41,327.42-4.71,385.87,3.15,446.63c25.32,195.7,202.39,338.01,404.26,316.5,112.25-12.88,233.15-74.67,290.97-162.04l-283.31-12.95Z" style="fill: #5f5f5f;"/>
  <path d="M185.58,207.45v-.11s-.55-144.36-.55-144.36c-63.6,41.52-113.4,102.25-141.21,174.01l194.29,95.69-52.53-125.23Z" style="fill: #5f5f5f;"/>
  <path d="M415.67,0c-60.57,.35-118.1,15.55-168.79,42.36l-12.23,144.45,41.61,130.38,81.15,49.3-.08,.12-39.47,62.74,100.72,43.47,.02,.06,27.07,86.94,254.06,41.46c53.45-63.89,85.53-146.23,85.16-236.13C784.07,163.56,621.4-1.2,415.67,0Zm145.99,485.27c-7.2,8.89-15.39,16.37-24.73,22.77,12.9-19.23,24.84-38.93,30.94-61.6,16.65-61.85,6.22-118.48-33.65-168.82-28.64-36.17-66.41-58.17-111.81-66.07-39.33-6.85-77.33-1.59-113.46,15.83-5.88,2.84-11.91,5.38-17.04,9.56-2.15,1.75-4.35,3.49-8.05,2.18,17.74-19.98,38.65-34.94,62.68-45.67,95.07-42.47,210.34,4.96,247.08,102.27,26.1,69.13,14.41,132.31-31.95,189.55Z" style="fill: #5f5f5f;"/>
</svg>