<svg width="68" height="70" viewBox="0 0 68 70" fill="none" xmlns="http://www.w3.org/2000/svg">
<path fill-rule="evenodd" clip-rule="evenodd" d="M5.71429 0H45.7143V8.57143H58.5714V27.1429H67.1429V70H28.5714V58.5714H24.2857V70H18.5714V58.5714H5.71429V70H0V52.8571H5.71429V0ZM34.2857 64.2857H61.4286V32.8571H58.5714V62.8571H52.8571V32.8571H45.7143V52.8571H48.5714V62.8571H42.8571V58.5714H34.2857V64.2857ZM40 32.8571V52.8571H34.2857V32.8571H40ZM28.5714 27.1429V52.8571H24.2857V14.2857H40V27.1429H28.5714ZM18.5714 8.57143V52.8571H11.4286V5.71429H40V8.57143H18.5714ZM45.7143 27.1429H52.8571V14.2857H45.7143V27.1429Z" fill="#5F5F5F"/>
</svg>
