<svg width="33" height="27" viewBox="0 0 33 27" fill="none" xmlns="http://www.w3.org/2000/svg">
<path d="M23.2222 26V23.2222C23.2222 21.7488 22.6369 20.3357 21.595 19.2939C20.5532 18.252 19.1401 17.6667 17.6667 17.6667H6.55556C5.08213 17.6667 3.66905 18.252 2.62718 19.2939C1.58532 20.3357 1 21.7488 1 23.2222V26M31.5556 26V23.2222C31.5546 21.9913 31.1449 20.7955 30.3908 19.8227C29.6366 18.8498 28.5807 18.155 27.3889 17.8472M21.8333 1.18056C23.0284 1.48653 24.0876 2.18153 24.8439 3.15599C25.6003 4.13044 26.0109 5.32893 26.0109 6.5625C26.0109 7.79607 25.6003 8.99456 24.8439 9.96901C24.0876 10.9435 23.0284 11.6385 21.8333 11.9444M17.6667 6.55556C17.6667 9.6238 15.1794 12.1111 12.1111 12.1111C9.04286 12.1111 6.55556 9.6238 6.55556 6.55556C6.55556 3.48731 9.04286 1 12.1111 1C15.1794 1 17.6667 3.48731 17.6667 6.55556Z" stroke="#5F5F5F" stroke-width="2" stroke-linecap="round" stroke-linejoin="round"/>
</svg>
